<svg width="45" height="45" viewBox="0 0 45 45" fill="none" xmlns="http://www.w3.org/2000/svg">
<path d="M14.6965 24.1573C19.7948 28.3146 22.0231 35.1592 22.5 38.0618C22.5 23.5674 14.6965 12.3596 8.3237 7.30337C18.0491 11.3764 21.8497 21.2079 22.5 25.1404C22.5 16.573 17.948 10.5337 14.3064 7.02247C11.3931 4.21348 3.55491 1.17041 0 0C0.65029 0.749064 1.95087 3.03371 1.95087 6.17978C1.30058 15.1685 8.3237 18.9607 14.6965 24.1573Z" fill="#0C8E12"/>
<path d="M11.185 23.7309C5.3951 20.2651 1.31588 14.5187 0 12.0787V44.9438C8.81639 44.9438 11.185 40.761 11.185 36.13V23.7309Z" fill="#0C8E12"/>
<path d="M30.3035 24.1573C25.2052 28.3146 22.9769 35.1592 22.5 38.0618C22.5 23.5674 30.3035 12.3596 36.6763 7.30337C26.9509 11.3764 23.1503 21.2079 22.5 25.1404C22.5 16.573 27.052 10.5337 30.6936 7.02247C33.6069 4.21348 41.4451 1.17041 45 0C44.3497 0.749064 43.0491 3.03371 43.0491 6.17978C43.6994 15.1685 36.6763 18.9607 30.3035 24.1573Z" fill="#0C8E12"/>
<path d="M33.525 23.7871C39.3149 20.3213 43.3941 14.5748 44.71 12.1349V45C35.8936 45 33.525 40.8172 33.525 36.1862V23.7871Z" fill="#0C8E12"/>
</svg>
