<svg width="55" height="55" viewBox="0 0 55 55" fill="none" xmlns="http://www.w3.org/2000/svg">
<path d="M17.9624 29.5256C24.1936 34.6067 26.9172 42.9723 27.5 46.52C27.5 28.8046 17.9624 15.1061 10.1734 8.92634C22.0601 13.9045 26.7052 25.9207 27.5 30.7272C27.5 20.2559 21.9364 12.8745 17.4855 8.58302C13.9249 5.14981 4.34489 1.4305 0 0C0.794799 0.915522 2.3844 3.70787 2.3844 7.55306C1.5896 18.5393 10.1734 23.1742 17.9624 29.5256Z" fill="#0C8E12"/>
<path d="M13.6705 29.0043C6.59402 24.7683 1.6083 17.7449 0 14.7627V54.9312C10.7756 54.9312 13.6705 49.8189 13.6705 44.1588V29.0043Z" fill="#0C8E12"/>
<path d="M37.0376 29.5256C30.8064 34.6067 28.0829 42.9723 27.5 46.52C27.5 28.8046 37.0376 15.1061 44.8266 8.92634C32.94 13.9045 28.2948 25.9207 27.5 30.7272C27.5 20.2559 33.0636 12.8745 37.5145 8.58302C41.0752 5.14981 50.6551 1.4305 55 0C54.2052 0.915522 52.6156 3.70787 52.6156 7.55306C53.4104 18.5393 44.8266 23.1742 37.0376 29.5256Z" fill="#0C8E12"/>
<path d="M40.975 29.0731C48.0515 24.8372 53.0372 17.8138 54.6455 14.8315V55.0001C43.8699 55.0001 40.975 49.8877 40.975 44.2276V29.0731Z" fill="#0C8E12"/>
</svg>
