<svg width="25" height="25" viewBox="0 0 25 25" fill="none" xmlns="http://www.w3.org/2000/svg">
<path d="M0 25L1.76695 18.5837C0.674546 16.7003 0.10148 14.5675 0.10745 12.3871C0.10745 5.5549 5.69484 0 12.5537 0C15.8847 0 19.0126 1.28921 21.3586 3.62999C23.7106 5.97077 25.0059 9.08389 25 12.3931C25 19.2253 19.4126 24.7802 12.5477 24.7802H12.5418C10.4584 24.7802 8.41093 24.2574 6.59025 23.2712L0 25ZM6.90663 21.0314L7.28271 21.2571C8.87057 22.1958 10.6913 22.6889 12.5477 22.6949H12.5537C18.2545 22.6949 22.8987 18.0787 22.8987 12.399C22.8987 9.64829 21.8242 7.06393 19.8722 5.11526C17.9202 3.16659 15.3176 2.0972 12.5537 2.0972C6.85291 2.09125 2.20869 6.70746 2.20869 12.3871C2.20869 14.3298 2.75191 16.225 3.79059 17.8648L4.03534 18.2569L2.99068 22.0532L6.90663 21.0314Z" fill="#F3F4F6"/>
<path fill-rule="evenodd" clip-rule="evenodd" d="M9.44356 7.20651C9.21075 6.68964 8.96601 6.67776 8.74514 6.67182C8.56605 6.66588 8.35712 6.66588 8.14819 6.66588C7.93926 6.66588 7.60498 6.74311 7.31844 7.05205C7.03191 7.36098 6.23201 8.10956 6.23201 9.63641C6.23201 11.1573 7.34829 12.6307 7.5035 12.8386C7.6587 13.0466 9.65846 16.2726 12.8163 17.5143C15.4428 18.548 15.9801 18.3401 16.5472 18.2866C17.1143 18.2331 18.3858 17.538 18.6484 16.8132C18.9051 16.0884 18.9051 15.4705 18.8275 15.3398C18.7499 15.2091 18.541 15.1319 18.2306 14.9774C17.9202 14.823 16.392 14.0744 16.1054 13.9674C15.8189 13.8664 15.61 13.813 15.407 14.1219C15.1981 14.4308 14.6012 15.126 14.4221 15.3339C14.243 15.5418 14.0579 15.5656 13.7475 15.4111C13.4371 15.2567 12.4342 14.9299 11.2463 13.8724C10.3211 13.0525 9.69428 12.0366 9.51519 11.7277C9.33611 11.4187 9.49729 11.2524 9.65249 11.0979C9.78979 10.9613 9.9629 10.7355 10.1181 10.5573C10.2733 10.379 10.327 10.2483 10.4285 10.0404C10.53 9.83246 10.4822 9.65423 10.4046 9.49976C10.327 9.35124 9.71815 7.81844 9.44356 7.20651Z" fill="#F3F4F6"/>
</svg>
